REM DIRINDEX 1\5,1\2\6,1\2\7,1\3\8,1\3\9,1\4\10,1\4\11,1\4\12
REM DIRNAME cjc026,folder01,folder02,folder03,folder04,folder05,folder06,folder07,folder08,folder09,folder10,folder11
TITLE ""
FILE "EJE_DB3000_5th_6C_43.mp3" MP3
  TRACK 01 AUDIO
    TITLE "0:"
    INDEX 01 00:00:00
  TRACK 02 AUDIO
    TITLE "10:cjc026_11820"
    INDEX 01 00:00:08
  TRACK 03 AUDIO
    TITLE "0:"
    INDEX 01 00:01:33
  TRACK 04 AUDIO
    TITLE "11:cjc026_11821"
    INDEX 01 00:01:70
  TRACK 05 AUDIO
    TITLE "0:"
    INDEX 01 00:03:34
  TRACK 06 AUDIO
    TITLE "12:cjc026_11822"
    INDEX 01 00:03:72
  TRACK 07 AUDIO
    TITLE "0:"
    INDEX 01 00:05:21
  TRACK 08 AUDIO
    TITLE "10:cjc026_11823"
    INDEX 01 00:05:57
  TRACK 09 AUDIO
    TITLE "0:"
    INDEX 01 00:06:68
  TRACK 10 AUDIO
    TITLE "11:cjc026_11824"
    INDEX 01 00:07:33
  TRACK 11 AUDIO
    TITLE "0:"
    INDEX 01 00:08:61
  TRACK 12 AUDIO
    TITLE "12:cjc026_11825"
    INDEX 01 00:09:21
  TRACK 13 AUDIO
    TITLE "0:"
    INDEX 01 00:10:33
  TRACK 14 AUDIO
    TITLE "10:cjc026_11826"
    INDEX 01 00:10:68
  TRACK 15 AUDIO
    TITLE "0:"
    INDEX 01 00:12:20
  TRACK 16 AUDIO
    TITLE "11:cjc026_11827"
    INDEX 01 00:12:55
  TRACK 17 AUDIO
    TITLE "0:"
    INDEX 01 00:13:53
  TRACK 18 AUDIO
    TITLE "12:cjc026_11828"
    INDEX 01 00:14:13
  TRACK 19 AUDIO
    TITLE "0:"
    INDEX 01 00:15:38
  TRACK 20 AUDIO
    TITLE "10:cjc026_11829"
    INDEX 01 00:15:73
  TRACK 21 AUDIO
    TITLE "0:"
    INDEX 01 00:17:10
  TRACK 22 AUDIO
    TITLE "11:cjc026_11830"
    INDEX 01 00:17:45
  TRACK 23 AUDIO
    TITLE "0:"
    INDEX 01 00:19:00
  TRACK 24 AUDIO
    TITLE "12:cjc026_11831"
    INDEX 01 00:19:38
  TRACK 25 AUDIO
    TITLE "0:"
    INDEX 01 00:20:47
  TRACK 26 AUDIO
    TITLE "10:cjc026_11832"
    INDEX 01 00:21:09
  TRACK 27 AUDIO
    TITLE "0:"
    INDEX 01 00:22:24
  TRACK 28 AUDIO
    TITLE "11:cjc026_11833"
    INDEX 01 00:22:59
  TRACK 29 AUDIO
    TITLE "0:"
    INDEX 01 00:24:00
  TRACK 30 AUDIO
    TITLE "12:cjc026_11834"
    INDEX 01 00:24:41
  TRACK 31 AUDIO
    TITLE "0:"
    INDEX 01 00:25:58
  TRACK 32 AUDIO
    TITLE "10:cjc026_11835"
    INDEX 01 00:26:15
  TRACK 33 AUDIO
    TITLE "0:"
    INDEX 01 00:27:32
  TRACK 34 AUDIO
    TITLE "11:cjc026_11836"
    INDEX 01 00:27:67
  TRACK 35 AUDIO
    TITLE "0:"
    INDEX 01 00:29:20
  TRACK 36 AUDIO
    TITLE "12:cjc026_11837"
    INDEX 01 00:29:55
  TRACK 37 AUDIO
    TITLE "0:"
    INDEX 01 00:30:72
  TRACK 38 AUDIO
    TITLE "10:cjc026_11838"
    INDEX 01 00:31:32
  TRACK 39 AUDIO
    TITLE "0:"
    INDEX 01 00:32:43
  TRACK 40 AUDIO
    TITLE "11:cjc026_11839"
    INDEX 01 00:33:03
  TRACK 41 AUDIO
    TITLE "0:"
    INDEX 01 00:34:28
  TRACK 42 AUDIO
    TITLE "12:cjc026_11840"
    INDEX 01 00:34:63
  TRACK 43 AUDIO
    TITLE "0:"
    INDEX 01 00:36:02
  TRACK 44 AUDIO
    TITLE "10:cjc026_11841"
    INDEX 01 00:36:37
  TRACK 45 AUDIO
    TITLE "0:"
    INDEX 01 00:37:49
  TRACK 46 AUDIO
    TITLE "11:cjc026_11842"
    INDEX 01 00:38:09
  TRACK 47 AUDIO
    TITLE "0:"
    INDEX 01 00:39:18
  TRACK 48 AUDIO
    TITLE "12:cjc026_11843"
    INDEX 01 00:39:53
  TRACK 49 AUDIO
    TITLE "0:"
    INDEX 01 00:40:67
  TRACK 50 AUDIO
    TITLE "10:cjc026_11844"
    INDEX 01 00:41:27
  TRACK 51 AUDIO
    TITLE "0:"
    INDEX 01 00:42:38
  TRACK 52 AUDIO
    TITLE "11:cjc026_11845"
    INDEX 01 00:42:73
  TRACK 53 AUDIO
    TITLE "0:"
    INDEX 01 00:44:39
  TRACK 54 AUDIO
    TITLE "12:cjc026_11846"
    INDEX 01 00:45:00
  TRACK 55 AUDIO
    TITLE "0:"
    INDEX 01 00:46:14
  TRACK 56 AUDIO
    TITLE "10:cjc026_11847"
    INDEX 01 00:46:46
  TRACK 57 AUDIO
    TITLE "0:"
    INDEX 01 00:47:63
  TRACK 58 AUDIO
    TITLE "11:cjc026_11848"
    INDEX 01 00:48:23
  TRACK 59 AUDIO
    TITLE "0:"
    INDEX 01 00:49:45
  TRACK 60 AUDIO
    TITLE "12:cjc026_11849"
    INDEX 01 00:50:08
  TRACK 61 AUDIO
    TITLE "0:"
    INDEX 01 00:51:19
  TRACK 62 AUDIO
    TITLE "10:cjc026_11850"
    INDEX 01 00:51:54
  TRACK 63 AUDIO
    TITLE "0:"
    INDEX 01 00:53:04
  TRACK 64 AUDIO
    TITLE "11:cjc026_11851"
    INDEX 01 00:53:39
  TRACK 65 AUDIO
    TITLE "0:"
    INDEX 01 00:54:54
  TRACK 66 AUDIO
    TITLE "12:cjc026_11852"
    INDEX 01 00:55:14
  TRACK 67 AUDIO
    TITLE "0:"
    INDEX 01 00:56:39
  TRACK 68 AUDIO
    TITLE "10:cjc026_11853"
    INDEX 01 00:56:74
  TRACK 69 AUDIO
    TITLE "0:"
    INDEX 01 00:58:40
  TRACK 70 AUDIO
    TITLE "11:cjc026_11854"
    INDEX 01 00:59:00
  TRACK 71 AUDIO
    TITLE "0:"
    INDEX 01 01:00:33
  TRACK 72 AUDIO
    TITLE "12:cjc026_11855"
    INDEX 01 01:00:63
  TRACK 73 AUDIO
    TITLE "0:"
    INDEX 01 01:02:29
  TRACK 74 AUDIO
    TITLE "10:cjc026_11856"
    INDEX 01 01:02:64
  TRACK 75 AUDIO
    TITLE "0:"
    INDEX 01 01:04:19
  TRACK 76 AUDIO
    TITLE "11:cjc026_11857"
    INDEX 01 01:04:54
  TRACK 77 AUDIO
    TITLE "0:"
    INDEX 01 01:06:31
  TRACK 78 AUDIO
    TITLE "12:cjc026_11858"
    INDEX 01 01:06:69
  TRACK 79 AUDIO
    TITLE "0:"
    INDEX 01 01:08:21
